<?xml version="1.0" encoding="utf-8"?>
<!-- Generator: Adobe Illustrator 25.2.1, SVG Export Plug-In . SVG Version: 6.00 Build 0)  -->
<svg version="1.1" id="Layer_1" xmlns="http://www.w3.org/2000/svg" xmlns:xlink="http://www.w3.org/1999/xlink" x="0px" y="0px"
	 viewBox="0 0 324 314" style="enable-background:new 0 0 324 314;" xml:space="preserve">
<style type="text/css">
	.st0{fill:none;stroke:#000000;stroke-width:13;}
	.st1{fill:none;}
	.st2{fill:#FFFFFF;}
	.st3{font-family:'JollyLodger';}
	.st4{font-size:169px;}
	.st5{fill:none;stroke:#231F20;stroke-width:4;}
	.st6{enable-background:new    ;}
	.st7{fill:none;stroke:#231F20;}
</style>
<path class="st0" d="M267.6,303.9l3.2,1.9l3.2-1.9l39.7-22.9l3.2-1.9v-3.8v-45.8v-3.8l-3.2-1.9L274.1,201l-3.2-1.9l-3.2,1.9
	L228,223.9l-3.2,1.9v3.8v45.8v3.8l3.2,1.9L267.6,303.9z"/>
<path class="st0" d="M49.6,302.2l3.2,1.9l3.2-1.9l39.7-22.9l3.2-1.9v-3.8v-45.8V224l-3.2-1.9L56,199.2l-3.2-1.9l-3.2,1.9L9.9,222.3
	l-3.3,1.9v3.8v45.8v3.8l3.3,1.9L49.6,302.2z"/>
<path class="st0" d="M158.6,303.2l3.2,1.9l3.2-1.9l39.7-22.9l3.2-1.9v-3.8v-45.8V225l-3.2-1.9L165,200.2l-3.2-1.9l-3.2,1.9
	l-39.7,22.9l-3.2,1.9v3.8v45.8v3.8l3.2,1.9L158.6,303.2z"/>
<path class="st0" d="M214.6,208.2l3.2,1.9l3.2-1.9l39.7-22.9l3.2-1.9v-3.8v-22.9v-22.9V130l-3.2-1.9L221,105.2l-3.2-1.9l-3.2,1.9
	l-39.7,22.9l-3.2,1.9v3.8v45.8v3.8l3.2,1.9L214.6,208.2z"/>
<path class="st0" d="M104.6,207.2l3.2,1.9l3.2-1.9l39.7-22.9l3.2-1.9v-3.8v-45.8V129l-3.2-1.9L111,104.2l-3.2-1.9l-3.2,1.9
	l-39.7,22.9l-3.2,1.9v3.8v45.8v3.8l3.2,1.9L104.6,207.2z"/>
<path class="st0" d="M160.6,113.2l3.2,1.9l3.2-1.9l39.7-22.9l3.2-1.9v-3.8V38.9v-3.8l-3.2-1.9L167,10.3l-3.2-1.9l-3.2,1.9
	l-39.7,22.9l-3.2,1.9v3.8v45.8v3.8l3.2,1.9L160.6,113.2z"/>
<g>
	<rect x="197.6" y="175.6" class="st1" width="176" height="186"/>
	<text transform="matrix(1 0 0 1 197.6405 302.343)" class="st2 st3 st4">V2</text>
	<text transform="matrix(1 0 0 1 197.6405 302.343)" class="st5 st3 st4">V2</text>
	<rect x="197.6" y="175.6" class="st1" width="176" height="186"/>
	<g class="st6">
		<path class="st7" d="M219.6,286.5c-2.1-7.2-4.3-15.6-6.8-25.3c-2.1-8.3-4.5-18.3-7.3-30.2c-2.8-11.9-5.7-25.5-8.7-40.9
			c0-1.1,0.6-2.4,1.8-3.9c1.2-1.5,2.7-2.9,4.4-4.2c1.7-1.3,3.5-2.5,5.4-3.5c1.9-1,3.5-1.5,4.8-1.5c0.8,0.9,1.8,4.6,3.1,11.2
			c0.5,2.9,1.2,6.4,2.1,10.7s1.7,9.6,2.7,15.9c1,6.3,2.1,13.7,3.3,22.2c1.2,8.5,2.6,18.3,4.1,29.5c1.1-7.6,2.2-14.8,3.3-21.5
			c1.1-6.8,2.1-12.8,3-18.1c1.1-6,2.1-11.7,3-16.8c0.4-3.2,1-6.6,1.6-10.2c0.6-3.6,1.2-6.8,1.9-9.8s1.3-5.4,2.1-7.4
			c0.7-2,1.5-3,2.4-3c0.8-0.1,2.1,0,3.9,0.3s3.6,0.8,5.4,1.4c1.8,0.6,3.3,1.3,4.7,2.1c1.4,0.8,2.1,1.5,2.1,2.3
			c0,0.4-0.4,2.5-1.2,6.3c-0.8,3.7-2,8.5-3.5,14.3c-1.5,5.8-3.1,12.3-5,19.6s-3.7,14.7-5.8,22.2c-2,7.5-4,14.9-6,22
			c-2,7.2-3.8,13.5-5.4,19.1c-1.7,5.6-3.1,10-4.2,13.5s-2,5.1-2.4,5.1c-0.4,0-1.6-2-3.5-5.9C222.8,298.2,221.1,293,219.6,286.5z"/>
		<path class="st7" d="M281.5,287c5.6-0.5,10.3-1,14.2-1.4c3.8-0.4,7-0.7,9.3-1c2.4-0.3,4.1-0.4,5.1-0.4c1,0,1.7,0.1,1.9,0.2
			c0.4,0.6,0.4,1.6,0,3.2c-0.4,1.6-1.1,3.3-2,5.2c-0.9,1.9-1.8,3.7-2.9,5.4c-1,1.8-1.9,3-2.6,3.6c-0.2,0.2-1.1,0.4-2.6,0.6
			c-1.5,0.2-3.4,0.3-5.7,0.4c-2.3,0.1-4.7,0.2-7.4,0.3c-2.7,0.1-5.3,0.2-7.7,0.2c-2.4,0.1-4.5,0.1-6.3,0.1c-1.8,0-2.9-0.1-3.5-0.2
			c-0.8-0.1-1.5-0.6-2.2-1.4c-0.7-0.8-1.4-1.8-2-2.8c-0.6-1-1.1-2.2-1.6-3.4c-0.4-1.2-0.7-2.3-0.8-3.3c-0.1-0.3,0.2-1.6,0.8-3.7
			c0.7-2.1,1.5-4.8,2.4-7.8c0.9-3.1,2-6.4,3.2-10c1.2-3.6,2.4-7,3.5-10.3s2.2-6.2,3.1-8.8c0.9-2.6,1.5-4.4,1.8-5.4
			c1.8-5,3.4-9.9,5-14.8c1.6-4.9,3-9.4,4.1-13.4c1.2-4,2-7.4,2.6-10.2c0.5-2.8,0.6-4.5,0.2-5.2c-0.3-0.4-1.2-0.4-2.7,0.1
			c-1.5,0.5-3.3,1.3-5.4,2.5c-2.1,1.2-4.4,2.5-6.8,3.9c-2.4,1.4-4.6,2.8-6.8,4.1s-4,2.5-5.5,3.4c-1.5,0.9-2.5,1.4-2.8,1.4
			c-0.6,0.1-1-0.6-1.2-2.1c-0.3-1.5-0.4-3.3-0.4-5.3s0.1-3.9,0.3-5.9c0.2-1.9,0.5-3.3,1-4c0.2-0.5,1.1-1.5,2.6-2.8s3.3-2.8,5.5-4.5
			c2.2-1.7,4.6-3.4,7.3-5.1c2.6-1.8,5.3-3.3,7.8-4.6c2.6-1.3,5-2.4,7.3-3.1c2.3-0.8,4.2-1,5.7-0.8c1,0.2,2.4,1,4.4,2.4
			c1.9,1.4,3.8,2.9,5.7,4.6c1.9,1.7,3.5,3.4,5,5.1c1.5,1.7,2.3,2.9,2.6,3.5c0.1,0.6-0.2,2.3-1.1,5.2c-0.8,2.9-2,6.5-3.5,10.9
			c-1.5,4.3-3.2,9.2-5.2,14.5c-2,5.3-4,10.8-6.2,16.3c-2.1,5.5-4.2,10.9-6.3,16.2c-2,5.3-3.9,10-5.5,14.1c-1.7,4.1-3,7.5-4,10.1
			C282.2,285.4,281.6,286.8,281.5,287z"/>
	</g>
</g>
</svg>
