<?xml version="1.0" encoding="utf-8"?>
<!-- Generator: Adobe Illustrator 25.2.1, SVG Export Plug-In . SVG Version: 6.00 Build 0)  -->
<svg version="1.1" id="Layer_1" xmlns="http://www.w3.org/2000/svg" xmlns:xlink="http://www.w3.org/1999/xlink" x="0px" y="0px"
	 viewBox="0 0 324 314" style="enable-background:new 0 0 324 314;" xml:space="preserve">
<style type="text/css">
	.st0{fill:#F7B238;}
	.st1{fill:none;}
	.st2{fill:#B931B8;}
	.st3{font-family:'JollyLodger';}
	.st4{font-size:169px;}
	.st5{fill:none;stroke:#231F20;stroke-width:4;}
	.st6{enable-background:new    ;}
	.st7{fill:#231F20;}
</style>
<path d="M270.8,313.4l-6.5-3.8l-39.6-22.8l-6.5-3.8v-60.8l6.4-3.8l39.8-22.9l6.4-3.8l6.5,3.9l39.5,22.8l6.5,3.8v60.8l-6.4,3.8
	l-39.8,22.9L270.8,313.4z M231.3,275.5L231.3,275.5l39.5,22.7l39.6-22.8l0-46l-39.5-22.7l-39.6,22.8V275.5z"/>
<path d="M52.8,311.7l-6.5-3.8L0.1,281.4v-60.9l6.6-3.8l39.7-23.1l6.5-3.8l6.5,3.9l39.6,22.9l6.5,3.8v60.8l-6.4,3.8l-39.8,22.9
	L52.8,311.7z M13.1,273.8L13.1,273.8l39.7,22.7l39.6-22.8l0-46l-39.6-22.8L13.1,228V273.8z"/>
<path class="st0" d="M161.8,312.7l-6.5-3.8l-39.7-22.9l-6.5-3.8v-60.8l6.4-3.8l39.8-22.9l6.4-3.8l6.5,3.9l39.6,22.9l6.5,3.8v60.8
	l-6.4,3.8l-39.8,22.9L161.8,312.7z M122.2,274.7L122.2,274.7l39.6,22.8l39.6-22.8l0-46l-39.6-22.8l-39.6,22.8V274.7z"/>
<path class="st0" d="M217.8,217.7l-6.5-3.8l-39.7-22.9l-6.5-3.8v-60.8l6.4-3.8l39.8-22.9l6.4-3.8l6.5,3.9l39.6,22.9l6.5,3.8v60.8
	l-6.4,3.8l-39.8,22.9L217.8,217.7z M178.2,179.7L178.2,179.7l39.6,22.8l39.6-22.8l0-46l-39.6-22.8l-39.6,22.8V179.7z"/>
<path class="st0" d="M107.8,216.7l-6.5-3.8l-39.7-22.9l-6.5-3.8v-60.8l6.4-3.8l39.8-22.9l6.4-3.8l6.5,3.9l39.6,22.9l6.5,3.8v60.8
	l-6.4,3.8l-39.8,22.9L107.8,216.7z M68.2,178.7L68.2,178.7l39.6,22.8l39.6-22.8l0-46l-39.6-22.8l-39.6,22.8V178.7z"/>
<path d="M163.8,122.7l-6.5-3.8L117.7,96l-6.5-3.8V31.4l6.4-3.8l39.8-22.9l6.4-3.8l6.5,3.9l39.6,22.9l6.5,3.8v60.7l-6.4,3.8
	l-39.8,22.9L163.8,122.7z M124.2,84.8L124.2,84.8l39.6,22.7l39.6-22.8l0-45.9L163.8,16l-39.6,22.8V84.8z"/>
<g>
	<rect x="195.8" y="170.6" class="st1" width="176" height="186"/>
	<text transform="matrix(1 0 0 1 195.8163 297.343)" class="st2 st3 st4">V2</text>
	<text transform="matrix(1 0 0 1 195.8163 297.343)" class="st5 st3 st4">V2</text>
	<rect x="195.8" y="170.6" class="st1" width="176" height="186"/>
	<g class="st6">
		<path class="st7" d="M226.6,303.4c-0.4,0-0.9,0-3.9-6.2c-2-3.6-3.7-8.7-5.3-15.6c-2-6.9-4.1-14.8-6.8-25.3
			c-1.9-7.6-4.2-16.9-7.3-30.2c-2.8-12-5.8-25.8-8.7-40.9c0-1.3,0.6-2.7,1.9-4.3c1.2-1.5,2.7-2.9,4.5-4.3c1.9-1.4,3.7-2.6,5.5-3.5
			c2-1,3.6-1.6,5-1.6h0.2l0.1,0.2c0.6,0.6,1.5,2.5,3.2,11.4c0.5,2.6,1.1,5.8,2.1,10.7c0.8,3.7,1.5,8.2,2.3,13.3l0.4,2.6
			c1,6.3,2.1,13.8,3.3,22.2l0.5,3.7c0.9,6.6,2,14.1,3.1,22.3c1-6.5,1.9-12.5,2.8-18c1-6.2,2-12.1,3-18.1c1-5.3,1.9-10.4,2.7-15
			l0.3-1.8c0.3-2.6,0.8-5.4,1.3-8.4l0.3-1.8c0.7-4,1.3-7.1,1.9-9.8c0.7-2.8,1.3-5.4,2.1-7.5c0.8-2.2,1.7-3.3,2.9-3.3
			c0.8-0.1,2.1,0,4,0.3c1.6,0.3,3.4,0.7,5.5,1.4c1.7,0.6,3.2,1.2,4.8,2.1c1.2,0.7,2.4,1.5,2.4,2.7c0,0.3-0.1,1.2-1.2,6.4
			c-0.7,3.3-1.8,7.6-3.5,14.3c-0.7,2.6-1.3,5.3-2.1,8.1c-0.9,3.6-1.9,7.4-2.9,11.5c-0.6,2.3-1.2,4.6-1.8,6.9c-1.3,5-2.6,10.2-4,15.3
			c-2.4,9.1-4.3,15.9-6,22c-2,7.2-3.8,13.5-5.4,19c-1.4,4.6-2.6,8.4-3.6,11.6l-0.6,2C227.8,303.4,226.9,303.4,226.6,303.4z
			 M211.2,172.5c-1.2,0.1-2.6,0.5-4.3,1.4c-1.7,0.9-3.5,2.1-5.3,3.5c-1.7,1.3-3.2,2.7-4.3,4.1c-1.1,1.4-1.7,2.6-1.7,3.6
			c2.9,15,5.9,28.8,8.7,40.8c3.1,13.3,5.4,22.6,7.3,30.2c2.7,10.5,4.8,18.4,6.8,25.3l0,0c1.6,6.8,3.3,11.8,5.2,15.4
			c1.9,4,2.8,5.2,3.1,5.5c0.3-0.4,1-1.7,1.9-4.6l0.6-2c1-3.1,2.2-6.9,3.6-11.5c1.6-5.6,3.4-11.9,5.4-19.1c1.7-6.1,3.6-12.9,6-22
			c1.4-5.1,2.8-10.3,4-15.3c0.6-2.3,1.2-4.6,1.8-6.9c1.1-4.1,2-7.9,2.9-11.5c0.7-2.8,1.4-5.5,2.1-8.1c1.7-6.7,2.8-11,3.5-14.3
			c1-4.9,1.2-6,1.2-6.2c0-0.6-0.6-1.1-1.8-1.9c-1.5-0.9-3-1.5-4.6-2.1c-2-0.7-3.7-1.1-5.3-1.4c-1.7-0.3-3-0.4-3.8-0.3
			c-0.7,0-1.4,1-2,2.7c-0.8,2.1-1.4,4.5-2.1,7.3c-0.6,2.7-1.2,5.8-1.9,9.8l-0.3,1.8c-0.5,2.9-1,5.7-1.3,8.4l-0.3,1.8
			c-0.8,4.6-1.7,9.7-2.7,15c-1,6-2,11.9-3,18.1c-1.1,6.5-2.2,13.7-3.3,21.5l-1,0c-1.3-9.6-2.5-18.2-3.6-25.8l-0.5-3.7
			c-1.2-8.4-2.3-15.9-3.3-22.2l-0.4-2.6c-0.8-5.1-1.5-9.6-2.3-13.3c-1-4.9-1.6-8.1-2.1-10.7C212.8,177.2,211.9,173.6,211.2,172.5z"
			/>
		<path class="st7" d="M273,298.9c-1.9,0-3-0.1-3.6-0.2c-0.9-0.1-1.7-0.6-2.5-1.6c-0.7-0.8-1.4-1.8-2.1-2.9c-0.6-1-1.1-2.3-1.6-3.5
			c-0.5-1.4-0.7-2.5-0.8-3.4c-0.1-0.3,0-1,0.8-3.9c0.6-1.9,1.3-4.2,2.1-6.8l0.3-1c0.9-3.1,2-6.5,3.2-10c0.6-1.8,1.2-3.6,1.8-5.4
			c0.6-1.7,1.1-3.3,1.7-4.9c0.7-2,1.3-3.9,2-5.6c0.4-1.1,0.8-2.2,1.1-3.2c0.9-2.6,1.5-4.4,1.8-5.4c1.8-5,3.4-10,5-14.8
			c1.8-5.6,3.1-9.8,4.1-13.4c1.3-4.3,2.1-7.9,2.6-10.2c0.5-2.7,0.6-4.3,0.3-4.8c0,0-0.1,0-0.4,0c-0.3,0-0.8,0.1-1.7,0.4
			c-1.6,0.5-3.4,1.4-5.3,2.5l-1.6,0.9c-1.6,0.9-3.4,1.9-5.2,3c-1.3,0.8-2.6,1.5-3.8,2.3c-1,0.6-2,1.2-3,1.8
			c-1.3,0.8-2.4,1.5-3.4,2.1c-0.7,0.5-1.4,0.9-2.1,1.3c-2.5,1.5-2.9,1.5-3.1,1.5c-0.2,0-0.5,0-0.8-0.2c-0.5-0.3-0.8-1.1-0.9-2.3
			c-0.3-1.4-0.4-3.1-0.4-5.4c0-2,0.1-3.9,0.3-6c0.2-2.2,0.6-3.5,1.1-4.2c0.4-0.8,1.9-2.2,2.7-2.9c1.8-1.6,3.6-3,5.5-4.5
			c2.4-1.8,4.8-3.5,7.3-5.1c2.8-1.9,5.7-3.5,7.8-4.6c2.2-1.1,4.9-2.4,7.4-3.1c2.2-0.8,4.2-1,5.9-0.8c1.1,0.2,2.4,1,4.6,2.5
			c2.2,1.6,4,3.1,5.7,4.6c1.7,1.5,3.2,3.1,5,5.1c1.9,2.1,2.5,3.3,2.7,3.6l0,0.1c0.2,1-0.6,3.8-1.1,5.4c-0.8,2.8-1.9,6.1-3.5,10.9
			l-0.3,0.7c-1.4,4.1-3.1,8.8-5,13.8c-0.5,1.4-1.1,2.9-1.6,4.3c-1.5,3.9-3,7.9-4.6,12c-2.1,5.5-4.2,10.9-6.3,16.2
			c-1.4,3.6-2.7,7-3.9,10c-0.6,1.4-1.1,2.8-1.6,4.1c-1.6,3.9-2.8,7.1-3.8,9.6l-0.2,0.5c-0.7,1.6-1.1,2.8-1.4,3.4
			c4.4-0.4,8.2-0.8,11.5-1.1l5-0.5c2.4-0.2,4.5-0.5,6.1-0.7c2.8-0.4,4.4-0.4,5.2-0.4c0.4,0,1.7,0,2.1,0.3l0.1,0.1l0.1,0.1
			c0.5,0.7,0.5,1.8,0.1,3.6c-0.4,1.5-1,3.1-2,5.3c-1,2.1-1.9,3.8-2.9,5.5c-1,1.7-1.9,3-2.7,3.7c-0.2,0.2-0.6,0.4-2.9,0.7
			c-1.4,0.2-3.2,0.3-5.7,0.4c-2.3,0.1-4.7,0.2-7.4,0.3l-0.2,0c-2.6,0.1-5.1,0.2-7.5,0.2C276.9,298.9,274.8,298.9,273,298.9z
			 M288.8,196.9c0.6,0,1,0.2,1.2,0.5c0.5,0.9,0.5,2.5-0.1,5.6c-0.5,2.3-1.3,5.9-2.6,10.3c-1,3.6-2.3,7.9-4.1,13.4
			c-1.6,4.9-3.2,9.8-5,14.8c-0.3,1-0.9,2.7-1.8,5.4c-0.4,1-0.7,2.1-1.1,3.2c-0.6,1.8-1.3,3.6-2,5.6c-0.5,1.6-1.1,3.3-1.7,5
			c-0.6,1.7-1.2,3.5-1.8,5.3c-1.2,3.5-2.3,6.9-3.2,10l-0.3,1c-0.8,2.7-1.5,5-2.1,6.8c-0.8,2.7-0.8,3.3-0.8,3.4
			c0.1,0.9,0.3,1.9,0.8,3.3c0.5,1.1,1,2.3,1.6,3.3c0.6,1,1.3,2,1.9,2.7c0.7,0.8,1.3,1.2,1.9,1.2c0.5,0.1,1.5,0.2,3.4,0.2
			c1.8,0,3.9,0,6.3-0.1c2.3,0,4.8-0.1,7.5-0.2l0.2,0c2.7-0.1,5.1-0.2,7.4-0.3c2.5-0.1,4.2-0.2,5.7-0.4c1.9-0.3,2.3-0.4,2.3-0.5
			c0.7-0.6,1.6-1.8,2.5-3.5c1.1-1.6,1.9-3.3,2.9-5.4c1-2.1,1.6-3.7,2-5.1c0.3-1.3,0.4-2.2,0.1-2.7c-0.2,0-0.8-0.1-1.6-0.1
			c-0.7,0-2.3,0.1-5,0.4c-1.6,0.2-3.7,0.4-6.1,0.7l-5,0.5c-3.6,0.4-7.6,0.8-12.3,1.2l-0.9,0.1l0.4-0.8c0-0.1,0.1-0.2,0.2-0.5
			c0.3-0.7,0.7-1.9,1.5-3.6l0.2-0.4c1-2.6,2.2-5.8,3.8-9.7c0.5-1.3,1-2.7,1.6-4.1c1.2-3,2.5-6.4,3.9-10c2.1-5.3,4.2-10.7,6.3-16.2
			c1.6-4,3.1-8,4.6-11.9c0.5-1.5,1.1-2.9,1.6-4.4c1.9-5,3.5-9.7,4.9-13.8l0.3-0.7c1.6-4.8,2.7-8.1,3.5-10.9c0.9-2.8,1.1-4.4,1.1-4.9
			c-0.2-0.4-0.8-1.4-2.5-3.3c-1.8-2-3.3-3.6-5-5.1c-1.7-1.5-3.5-3-5.7-4.6c-2-1.4-3.3-2.1-4.2-2.3c-1.5-0.2-3.4,0.1-5.4,0.8
			c-2.5,0.8-5,2-7.2,3.1c-2.1,1.1-5,2.6-7.7,4.6c-2.5,1.6-4.9,3.3-7.3,5.1c-1.9,1.5-3.7,2.9-5.5,4.5c-1.6,1.4-2.3,2.3-2.5,2.6
			l-0.1,0.1c-0.4,0.6-0.7,1.8-0.9,3.8c-0.2,2-0.3,3.9-0.3,5.8c0,2.2,0.1,3.9,0.4,5.2c0.2,1.3,0.5,1.6,0.5,1.7l0,0l0.1,0
			c0,0,0.5-0.1,2.5-1.3c0.6-0.4,1.3-0.8,2-1.3c1-0.7,2.2-1.4,3.5-2.1c1-0.6,2-1.2,3-1.8c1.2-0.8,2.5-1.5,3.8-2.3c1.8-1,3.5-2,5.2-3
			l1.6-0.9c2-1.1,3.8-2,5.5-2.5C287.6,197,288.2,196.9,288.8,196.9z"/>
	</g>
</g>
</svg>
