<?xml version="1.0" encoding="utf-8"?>
<!-- Generator: Adobe Illustrator 25.2.1, SVG Export Plug-In . SVG Version: 6.00 Build 0)  -->
<svg version="1.1" id="Layer_1" xmlns="http://www.w3.org/2000/svg" xmlns:xlink="http://www.w3.org/1999/xlink" x="0px" y="0px"
	 viewBox="0 0 324 314" style="enable-background:new 0 0 324 314;" xml:space="preserve">
<style type="text/css">
	.st0{fill:none;stroke:#000000;stroke-width:13;}
	.st1{fill:none;}
	.st2{fill:#FFFFFF;stroke:#231F20;stroke-width:4;}
	.st3{font-family:'JollyLodger';}
	.st4{font-size:169px;}
	.st5{fill:none;stroke:#231F20;}
</style>
<path class="st0" d="M267.6,303.9l3.2,1.9l3.2-1.9l39.7-22.9l3.2-1.9v-3.8v-45.8v-3.8l-3.2-1.9L274.1,201l-3.2-1.9l-3.2,1.9
	l-39.7,22.9l-3.2,1.9v3.8v45.8v3.8l3.2,1.9L267.6,303.9z"/>
<path class="st0" d="M49.6,302.2l3.2,1.9l3.2-1.9l39.7-22.9l3.2-1.9v-3.8v-45.8v-3.8l-3.2-1.9l-39.7-22.9l-3.2-1.9l-3.2,1.9
	L9.9,222.3l-3.3,1.9v3.8v45.8v3.8l3.3,1.9L49.6,302.2z"/>
<path class="st0" d="M158.6,303.2l3.2,1.9l3.2-1.9l39.7-22.9l3.2-1.9v-3.8v-45.8v-3.8l-3.2-1.9l-39.7-22.9l-3.2-1.9l-3.2,1.9
	l-39.7,22.9l-3.2,1.9v3.8v45.8v3.8l3.2,1.9L158.6,303.2z"/>
<path class="st0" d="M214.6,208.2l3.2,1.9l3.2-1.9l39.7-22.9l3.2-1.9v-3.8v-22.9v-22.9v-3.8l-3.2-1.9l-39.7-22.9l-3.2-1.9l-3.2,1.9
	l-39.7,22.9l-3.2,1.9v3.8v45.8v3.8l3.2,1.9L214.6,208.2z"/>
<path class="st0" d="M104.6,207.2l3.2,1.9l3.2-1.9l39.7-22.9l3.2-1.9v-3.8v-45.8v-3.8l-3.2-1.9l-39.7-22.9l-3.2-1.9l-3.2,1.9
	l-39.7,22.9l-3.2,1.9v3.8v45.8v3.8l3.2,1.9L104.6,207.2z"/>
<path class="st0" d="M160.6,113.2l3.2,1.9l3.2-1.9l39.7-22.9l3.2-1.9v-3.8V38.9v-3.8l-3.2-1.9l-39.7-22.9l-3.2-1.9l-3.2,1.9
	l-39.7,22.9l-3.2,1.9v3.8v45.8v3.8l3.2,1.9L160.6,113.2z"/>
<g>
	<rect x="197.6" y="175.6" class="st1" width="176" height="186"/>
	<text transform="matrix(1 0 0 1 197.6405 302.343)" class="st2 st3 st4">V2</text>
	<rect x="197.6" y="175.6" class="st1" width="176" height="186"/>
	<text transform="matrix(1 0 0 1 197.6405 302.343)" class="st5 st3 st4">V2</text>
</g>
</svg>
