<svg width="324" height="314" viewBox="0 0 324 314" fill="none" xmlns="http://www.w3.org/2000/svg">
<path d="M267.552 303.905L270.802 305.781L274.052 303.905L313.716 281.005L316.966 279.128L316.966 275.375L316.966 229.576L316.966 225.823L313.716 223.947L274.052 201.047L270.802 199.17L267.552 201.047L227.888 223.947L224.638 225.823L224.638 229.576L224.638 275.375L224.638 279.128L227.888 281.005L267.552 303.905Z" stroke="#F7B238" stroke-width="13"/>
<path d="M49.5518 302.229L52.8018 304.105L56.0518 302.229L95.7156 279.329L98.9656 277.452L98.9656 273.7L98.9656 227.9L98.9656 224.147L95.7156 222.271L56.0518 199.371L52.8018 197.494L49.5518 199.371L9.88798 222.271L6.63798 224.147L6.63798 227.9L6.63798 273.7L6.63798 277.452L9.88798 279.329L49.5518 302.229Z" stroke="#F7B238" stroke-width="13"/>
<path d="M158.552 303.229L161.802 305.105L165.052 303.229L204.716 280.329L207.966 278.452L207.966 274.7L207.966 228.9L207.966 225.147L204.716 223.271L165.052 200.371L161.802 198.494L158.552 200.371L118.888 223.271L115.638 225.147L115.638 228.9L115.638 274.7L115.638 278.452L118.888 280.329L158.552 303.229Z" stroke="#F7B238" stroke-width="13"/>
<path d="M214.555 208.229L217.805 210.105L221.055 208.229L260.719 185.329L263.969 183.452L263.969 179.7L263.969 156.8L263.969 133.9L263.969 130.147L260.719 128.271L221.055 105.371L217.805 103.494L214.555 105.371L174.891 128.271L171.641 130.147L171.641 133.9L171.641 179.7L171.641 183.452L174.891 185.329L214.555 208.229Z" stroke="#F7B238" stroke-width="13"/>
<path d="M104.552 207.229L107.802 209.105L111.052 207.229L150.716 184.329L153.966 182.452L153.966 178.7L153.966 132.9L153.966 129.147L150.716 127.271L111.052 104.371L107.802 102.494L104.552 104.371L64.888 127.271L61.638 129.147L61.638 132.9L61.638 178.7L61.638 182.452L64.888 184.329L104.552 207.229Z" stroke="#F7B238" stroke-width="13"/>
<path d="M160.552 113.229L163.802 115.105L167.052 113.229L206.716 90.3289L209.966 88.4525L209.966 84.6997L209.966 38.8999L209.966 35.1471L206.716 33.2708L167.052 10.3708L163.802 8.49446L160.552 10.3708L120.888 33.2707L117.638 35.1471L117.638 38.8999L117.638 84.6997L117.638 88.4525L120.888 90.3289L160.552 113.229Z" stroke="#F7B238" stroke-width="13"/>
</svg>
