<?xml version="1.0" encoding="utf-8"?>
<!-- Generator: Adobe Illustrator 25.2.1, SVG Export Plug-In . SVG Version: 6.00 Build 0)  -->
<svg version="1.1" id="Layer_1" xmlns="http://www.w3.org/2000/svg" xmlns:xlink="http://www.w3.org/1999/xlink" x="0px" y="0px"
	 viewBox="0 0 648 648" style="enable-background:new 0 0 648 648;" xml:space="preserve">
<style type="text/css">
	.st0{fill:none;}
	.st1{fill:#FFFFFF;stroke:#231F20;stroke-width:4;}
	.st2{font-family:'JollyLodger';}
	.st3{font-size:362px;}
	.st4{fill:none;stroke:#231F20;}
</style>
<g transform="translate(0.000000,648.000000) scale(0.100000,-0.100000)">
	<path d="M3225,6330c-27-16-59-34-70-40c-11-5-27-14-35-20c-15-10-155-90-240-138c-25-14-57-33-72-43c-14-11-28-19-31-19
		c-10,0-542-311-547-321c-4-5-7-280-7-609v-600l36-23c32-22,97-60,231-135c25-14,62-36,82-49c21-12,42-23,48-23c5,0,10-4,10-8
		c0-5,16-14,35-22s35-17,35-21s8-9,18-12c9-4,43-21,74-39s99-57,150-87s113-65,138-79s57-33,72-43c14-11,31-19,36-19c6,0,17-6,24-12
		c7-7,25-19,39-26c23-12,31-11,75,14c55,30,110,62,139,82c11,6,27,15,35,19s59,33,113,65s100,58,103,58c2,0,27,15,56,33
		c29,19,60,37,68,40c8,4,36,20,61,35s132,76,238,137l191,110l-2,610l-3,609l-135,78c-74,43-142,82-150,87c-8,6-67,39-130,76
		c-63,36-137,79-165,95c-27,17-57,33-65,37s-17,9-20,12s-23,15-45,27s-107,60-189,108c-82,47-150,86-150,86
		C3275,6359,3253,6346,3225,6330z M3476,5945c110-63,206-119,214-125s24-14,35-20c11-5,92-51,180-102l160-93l3-463
		c2-406,0-462-13-462c-8,0-15-3-15-7c0-5-23-19-50-32c-28-14-50-29-50-33s-5-8-11-8s-49-22-96-50c-47-27-89-50-94-50s-9-4-9-10
		c0-5-4-10-9-10c-6,0-102-53-214-118c-113-66-212-122-221-125c-10-4-66,23-152,73c-75,44-138,80-140,80c-3,0-41,23-85,50
		c-44,28-82,50-85,50c-2,0-38,20-80,45c-41,25-77,45-80,45c-2,0-28,16-58,35s-60,35-66,35c-5,0-10,5-10,11c0,5-4,8-10,4
		c-5-3-16,5-23,17c-12,19-14,98-13,472l1,450l83,48c46,26,88,48,93,48s9,5,9,10c0,6,5,10,11,10c5,0,58,28,117,63s114,66,122,70
		s29,16,45,27c17,11,39,24,50,30c11,5,47,25,80,45c33,19,71,41,85,47c14,7,27,15,30,19c4,4,56,35,66,39
		C3277,6060,3367,6008,3476,5945z"/>
	<path d="M2080,4436c-41-23-147-84-235-135c-88-52-180-105-204-119c-25-14-67-38-93-53c-27-16-53-29-58-29c-6,0-10-4-10-10
		c0-5-4-10-9-10c-13,0-345-192-349-202c-2-5-7-6-11-4c-4,3-8-270-8-605v-610l54-35c29-19,55-34,58-34s26-13,52-28
		c43-26,78-46,233-137c25-14,53-28,63-32c9-3,17-9,17-14s4-9,8-9c5,0,76-39,158-86s172-98,199-114c28-15,86-49,130-75l79-47l35,18
		c20,11,86,48,147,84c60,36,122,72,137,80c14,8,63,36,108,63c45,26,86,47,90,47c5,0,9,5,9,10c0,6,4,10,9,10s49,23,98,51
		c48,29,107,62,130,75c100,57,269,157,281,166c9,8,12,139,10,616l-3,606l-140,83c-77,45-153,89-170,97c-16,9-48,26-70,40
		s-51,31-65,39c-46,24-365,209-390,225c-14,9-27,17-30,17s-45,24-93,53c-49,28-90,52-90,52C2156,4480,2121,4460,2080,4436z
		 M2295,4100c149-85,234-136,258-152c15-11,27-16,27-12s8,0,18-8c9-8,24-18,32-21c8-4,83-46,165-94l150-88l2-460l2-460l-156-90
		c-86-49-162-91-170-93c-7-2-13-8-13-13s-5-9-11-9s-60-29-120-65c-61-36-114-65-118-65s-12-5-19-12c-12-12-92-59-158-93l-31-16
		l-184,107c-101,59-215,125-254,147c-76,44-153,88-200,116c-16,10-52,30-80,45c-27,16-55,32-61,37c-14,12-13,914,1,927
		c6,5,30,20,55,33s47,26,50,29s14,10,25,16c49,27,128,72,380,217l270,156l55-31C2240,4131,2279,4109,2295,4100z"/>
	<path d="M4325,4442c-16-10-50-30-75-44s-137-78-250-143s-215-124-227-129c-13-6-23-14-23-18c0-5-4-8-9-8c-6,0-92-48-193-106
		c-101-59-196-114-213-124l-30-17l-2-599c-1-561,1-644,14-630c3,3,17-4,31-14c13-11,31-20,38-20c8,0,14-4,14-10c0-5,6-10,14-10
		c7,0,19-7,26-15c6-8,15-14,18-12c4,1,50-24,102-55c112-65,330-192,380-221c107-60,127-72,144-86c10-9,19-14,20-12c0,3,12-2,26-11
		s70-41,125-73c113-65,90-68,260,34c22,13,146,85,275,159s273,157,320,185c96,56,120,70,205,117c33,18,68,40,78,48
		c16,14,17,56,17,618v603l-29,20c-16,12-31,21-34,21s-51,27-106,60c-56,33-106,60-111,60c-6,0-10,5-10,10c0,6-5,10-10,10
		c-6,0-80,40-165,90c-84,49-169,98-187,108c-42,24-138,80-158,92c-49,31-173,100-178,100c-4,0-18,9-32,20
		C4359,4464,4362,4464,4325,4442z M4458,4098c2-5,8-8,13-8s26-11,47-23c20-13,58-36,85-50c26-15,68-39,95-54c26-14,134-77,241-140
		c107-62,198-113,203-113c4,0,8-207,8-460v-460l-37-24c-21-13-130-77-243-142s-274-157-358-206c-84-48-155-88-157-88s-42,22-87,49
		c-46,27-100,58-120,70c-91,51-109,61-173,100c-37,23-69,41-71,41s-27,14-56,31c-29,18-73,43-98,57s-76,44-115,67l-70,41l-2,444
		c0,245,1,453,4,463c2,10,14,22,26,28c12,5,29,13,37,19c14,9,132,77,220,128c19,11,123,70,230,132s213,123,235,135l40,23l50-26
		C4433,4117,4457,4102,4458,4098z"/>
	<path d="M960,2526c-52-30-99-58-105-63c-5-4-28-17-50-28s-42-23-45-26s-17-12-31-20c-45-24-151-83-168-94c-9-5-43-25-76-44
		s-152-88-264-153S14,1980,10,1980s-7-275-7-612V756l230-133c126-73,231-133,234-133s25-13,50-30c24-16,46-30,47-30
		c2,0,112-63,245-140s244-140,246-140c4,0,219,123,300,171c17,10,46,26,65,37c40,22,43,24,280,160c96,56,180,105,185,109
		c6,5,19,13,31,18c11,6,59,33,107,60l87,50v607v607l-29,20c-16,12-32,21-35,21s-35,18-71,40s-70,40-75,40c-6,0-10,5-10,12
		c0,6-3,8-7,5c-3-4-13-1-22,6c-9,8-36,25-61,38s-47,27-50,30s-20,12-37,20c-18,8-33,17-33,21c0,5-6,8-14,8c-7,0-19,7-26,15
		c-7,9-15,13-18,10s-10-1-16,4c-12,10-272,163-296,174c-8,4-28,16-45,27c-16,11-37,23-45,27s-48,26-88,50s-74,43-75,43
		S1012,2555,960,2526z M1389,2087c162-93,309-178,325-188c17-10,38-22,46-26c8-3,32-17,53-30l37-23v-454c0-351-3-456-12-464
		c-11-8-198-118-293-172c-81-46-262-150-367-212l-118-69l-47,26c-27,14-75,41-108,61c-33,19-68,38-77,41c-10,3-18,9-18,14s-4,9-9,9
		s-44,20-85,45c-42,25-81,45-86,45c-6,0-10,5-10,10c0,6-4,10-9,10s-49,23-98,51c-48,28-101,59-118,69c-16,9-52,31-80,47l-50,29
		l-1,458l-1,457l86,50c47,27,93,54,101,60c8,5,27,15,43,22c15,6,27,15,27,19s4,8,9,8c4,0,48,23,97,51c49,29,107,62,129,75
		c22,12,98,56,169,97c110,64,133,74,150,65C1086,2262,1228,2181,1389,2087z"/>
	<path d="M3120,2494c-63-37-130-75-147-85c-18-11-48-27-65-38c-18-10-100-58-183-106c-82-48-166-96-185-107c-19-10-42-23-50-28
		c-8-6-80-48-160-93l-145-83l-1-608l-1-608l36-22c78-50,353-206,362-206c5,0,9-5,9-10c0-6,3-9,8-8c4,1,18-5,32-14
		c27-17,129-76,200-116c25-14,125-72,223-129c98-56,180-103,183-103s49,25,102,56s113,65,132,76c102,58,178,102,200,116
		c14,9,28,17,32,17c3,0,9,3,13,6c3,4,134,80,290,170l285,164l-3,610l-2,609l-65,38c-36,20-70,41-76,45c-5,4-26,16-45,27
		c-19,10-59,32-89,49c-30,16-62,36-71,43c-8,8-18,14-22,14c-3,0-82,44-175,98s-175,102-183,105c-8,4-32,18-54,32s-47,28-55,32
		s-59,33-113,65s-99,58-100,58S3183,2530,3120,2494z M3352,2194c277-162,344-201,358-207c8-4,83-46,165-94l150-88l3-460l2-460
		l-72-41c-40-22-218-125-395-227c-178-103-325-187-327-187c-3,0-55,29-116,65s-132,77-158,92c-118,67-185,106-292,168
		c-36,20-85,49-110,63s-61,35-80,47l-35,22l-1,457c-1,319,2,459,10,465c6,4,36,22,66,38c30,17,96,54,145,83c50,29,99,58,110,64
		c71,40,243,139,255,147c21,13,205,119,207,119C3238,2260,3289,2230,3352,2194z"/>
	<path d="M5385,2531c-6-5-37-24-70-42s-62-35-65-38s-19-13-35-22c-38-20-838-481-845-486c-3-3-5-279-6-615c-1-585,0-611,18-616
		c10-2,18-8,18-13s5-9,10-9c6,0,75-37,153-83s149-86,157-90c8-5,24-13,35-20c61-38,147-87,150-87c2,0,75-43,163-95
		c89-52,163-95,166-95s37-20,76-45c38-25,70-42,70-38s5,2,12-5s17-12,23-12c12,0,210,111,231,129c7,5,14,8,17,5c2-2,10,2,17,11
		c7,8,19,15,26,15c8,0,14,4,14,9s8,11,18,14c18,6,86,44,182,102c30,18,80,47,110,64s88,50,128,74c40,23,86,49,101,57s68,39,119,69
		l92,53v608v608l-82,48c-46,26-150,87-233,134c-82,48-210,122-284,165c-74,42-149,85-165,95c-17,9-86,49-153,89
		C5433,2539,5404,2549,5385,2531z M5591,2150c5,0,9-4,9-10c0-5,5-10,11-10c12,0,145-76,172-98c9-8,17-11,17-6s4,5,8-1
		c4-5,16-15,27-21c12-7,78-45,148-85c70-41,149-86,175-101l47-26l3-460l2-459l-152-89c-84-49-166-96-183-105c-16-9-46-26-65-38
		s-47-27-62-33c-16-7-28-16-28-20s-4-8-9-8c-4,0-48-23-97-51c-49-29-109-63-134-77c-25-13-50-28-55-33c-6-4-22,1-35,11
		c-14,11-31,20-37,20c-7,0-13,5-13,10c0,6-6,10-14,10c-7,0-26,10-42,23c-16,12-30,21-31,19c-2-1-13,4-26,11c-27,17-269,157-317,184
		c-19,11-77,44-128,74s-108,62-126,72l-33,19v458v458l66,38c35,22,77,46,92,54s51,29,81,46c29,17,96,55,148,85c52,29,97,57,98,61
		c2,4,7,8,12,8s47,23,95,50c48,28,91,50,96,50s9,4,9,9s8,11,18,15c9,3,30,14,47,24l30,18l83-48C5544,2172,5586,2150,5591,2150z"/>
</g>
<g>
	<rect x="387" y="358.8" class="st0" width="267.9" height="303.7"/>
	<text transform="matrix(1 0 0 1 387.0405 630.2487)" class="st1 st2 st3">V2</text>
	<rect x="387" y="358.8" class="st0" width="267.9" height="303.7"/>
	<text transform="matrix(1 0 0 1 387.0405 630.2487)" class="st4 st2 st3">V2</text>
</g>
</svg>
