<?xml version="1.0" standalone="no"?>
<!DOCTYPE svg PUBLIC "-//W3C//DTD SVG 20010904//EN"
 "http://www.w3.org/TR/2001/REC-SVG-20010904/DTD/svg10.dtd">
<svg version="1.0" xmlns="http://www.w3.org/2000/svg"
 width="648.000000pt" height="648.000000pt" viewBox="0 0 648.000000 648.000000"
 preserveAspectRatio="xMidYMid meet">
<metadata>
Created by potrace 1.14, written by Peter Selinger 2001-2017
</metadata>
<g transform="translate(0.000000,648.000000) scale(0.100000,-0.100000)"
fill="#000000" stroke="none">
<path d="M3225 6330 c-27 -16 -59 -34 -70 -40 -11 -5 -27 -14 -35 -20 -15 -10
-155 -90 -240 -138 -25 -14 -57 -33 -72 -43 -14 -11 -28 -19 -31 -19 -10 0
-542 -311 -547 -321 -4 -5 -7 -280 -7 -609 l0 -600 36 -23 c32 -22 97 -60 231
-135 25 -14 62 -36 82 -49 21 -12 42 -23 48 -23 5 0 10 -4 10 -8 0 -5 16 -14
35 -22 19 -8 35 -17 35 -21 0 -4 8 -9 18 -12 9 -4 43 -21 74 -39 31 -18 99
-57 150 -87 51 -30 113 -65 138 -79 25 -14 57 -33 72 -43 14 -11 31 -19 36
-19 6 0 17 -6 24 -12 7 -7 25 -19 39 -26 23 -12 31 -11 75 14 55 30 110 62
139 82 11 6 27 15 35 19 8 4 59 33 113 65 54 32 100 58 103 58 2 0 27 15 56
33 29 19 60 37 68 40 8 4 36 20 61 35 25 15 132 76 238 137 l191 110 -2 610
-3 609 -135 78 c-74 43 -142 82 -150 87 -8 6 -67 39 -130 76 -63 36 -137 79
-165 95 -27 17 -57 33 -65 37 -8 4 -17 9 -20 12 -3 3 -23 15 -45 27 -22 12
-107 60 -189 108 -82 47 -150 86 -150 86 -1 -1 -23 -14 -51 -30z m251 -385
c110 -63 206 -119 214 -125 8 -6 24 -14 35 -20 11 -5 92 -51 180 -102 l160
-93 3 -463 c2 -406 0 -462 -13 -462 -8 0 -15 -3 -15 -7 0 -5 -23 -19 -50 -32
-28 -14 -50 -29 -50 -33 0 -4 -5 -8 -11 -8 -6 0 -49 -22 -96 -50 -47 -27 -89
-50 -94 -50 -5 0 -9 -4 -9 -10 0 -5 -4 -10 -9 -10 -6 0 -102 -53 -214 -118
-113 -66 -212 -122 -221 -125 -10 -4 -66 23 -152 73 -75 44 -138 80 -140 80
-3 0 -41 23 -85 50 -44 28 -82 50 -85 50 -2 0 -38 20 -80 45 -41 25 -77 45
-80 45 -2 0 -28 16 -58 35 -30 19 -60 35 -66 35 -5 0 -10 5 -10 11 0 5 -4 8
-10 4 -5 -3 -16 5 -23 17 -12 19 -14 98 -13 472 l1 450 83 48 c46 26 88 48 93
48 5 0 9 5 9 10 0 6 5 10 11 10 5 0 58 28 117 63 59 35 114 66 122 70 8 4 29
16 45 27 17 11 39 24 50 30 11 5 47 25 80 45 33 19 71 41 85 47 14 7 27 15 30
19 4 4 56 35 66 39 1 0 91 -52 200 -115z"/>
<path d="M2080 4436 c-41 -23 -147 -84 -235 -135 -88 -52 -180 -105 -204 -119
-25 -14 -67 -38 -93 -53 -27 -16 -53 -29 -58 -29 -6 0 -10 -4 -10 -10 0 -5 -4
-10 -9 -10 -13 0 -345 -192 -349 -202 -2 -5 -7 -6 -11 -4 -4 3 -8 -270 -8
-605 l0 -610 54 -35 c29 -19 55 -34 58 -34 3 0 26 -13 52 -28 43 -26 78 -46
233 -137 25 -14 53 -28 63 -32 9 -3 17 -9 17 -14 0 -5 4 -9 8 -9 5 0 76 -39
158 -86 82 -47 172 -98 199 -114 28 -15 86 -49 130 -75 l79 -47 35 18 c20 11
86 48 147 84 60 36 122 72 137 80 14 8 63 36 108 63 45 26 86 47 90 47 5 0 9
5 9 10 0 6 4 10 9 10 5 0 49 23 98 51 48 29 107 62 130 75 100 57 269 157 281
166 9 8 12 139 10 616 l-3 606 -140 83 c-77 45 -153 89 -170 97 -16 9 -48 26
-70 40 -22 14 -51 31 -65 39 -46 24 -365 209 -390 225 -14 9 -27 17 -30 17 -3
0 -45 24 -93 53 -49 28 -90 52 -90 52 -1 0 -36 -20 -77 -44z m215 -336 c149
-85 234 -136 258 -152 15 -11 27 -16 27 -12 0 4 8 0 18 -8 9 -8 24 -18 32 -21
8 -4 83 -46 165 -94 l150 -88 2 -460 2 -460 -156 -90 c-86 -49 -162 -91 -170
-93 -7 -2 -13 -8 -13 -13 0 -5 -5 -9 -11 -9 -6 0 -60 -29 -120 -65 -61 -36
-114 -65 -118 -65 -4 0 -12 -5 -19 -12 -12 -12 -92 -59 -158 -93 l-31 -16
-184 107 c-101 59 -215 125 -254 147 -76 44 -153 88 -200 116 -16 10 -52 30
-80 45 -27 16 -55 32 -61 37 -14 12 -13 914 1 927 6 5 30 20 55 33 25 13 47
26 50 29 3 3 14 10 25 16 49 27 128 72 380 217 l270 156 55 -31 c30 -17 69
-39 85 -48z"/>
<path d="M4325 4442 c-16 -10 -50 -30 -75 -44 -25 -14 -137 -78 -250 -143
-113 -65 -215 -124 -227 -129 -13 -6 -23 -14 -23 -18 0 -5 -4 -8 -9 -8 -6 0
-92 -48 -193 -106 -101 -59 -196 -114 -213 -124 l-30 -17 -2 -599 c-1 -561 1
-644 14 -630 3 3 17 -4 31 -14 13 -11 31 -20 38 -20 8 0 14 -4 14 -10 0 -5 6
-10 14 -10 7 0 19 -7 26 -15 6 -8 15 -14 18 -12 4 1 50 -24 102 -55 112 -65
330 -192 380 -221 107 -60 127 -72 144 -86 10 -9 19 -14 20 -12 0 3 12 -2 26
-11 14 -9 70 -41 125 -73 113 -65 90 -68 260 34 22 13 146 85 275 159 129 74
273 157 320 185 96 56 120 70 205 117 33 18 68 40 78 48 16 14 17 56 17 618
l0 603 -29 20 c-16 12 -31 21 -34 21 -3 0 -51 27 -106 60 -56 33 -106 60 -111
60 -6 0 -10 5 -10 10 0 6 -5 10 -10 10 -6 0 -80 40 -165 90 -84 49 -169 98
-187 108 -42 24 -138 80 -158 92 -49 31 -173 100 -178 100 -4 0 -18 9 -32 20
-31 24 -28 24 -65 2z m133 -344 c2 -5 8 -8 13 -8 5 0 26 -11 47 -23 20 -13 58
-36 85 -50 26 -15 68 -39 95 -54 26 -14 134 -77 241 -140 107 -62 198 -113
203 -113 4 0 8 -207 8 -460 l0 -460 -37 -24 c-21 -13 -130 -77 -243 -142 -113
-65 -274 -157 -358 -206 -84 -48 -155 -88 -157 -88 -2 0 -42 22 -87 49 -46 27
-100 58 -120 70 -91 51 -109 61 -173 100 -37 23 -69 41 -71 41 -2 0 -27 14
-56 31 -29 18 -73 43 -98 57 -25 14 -76 44 -115 67 l-70 41 -2 444 c0 245 1
453 4 463 2 10 14 22 26 28 12 5 29 13 37 19 14 9 132 77 220 128 19 11 123
70 230 132 107 62 213 123 235 135 l40 23 50 -26 c28 -15 52 -30 53 -34z"/>
<path d="M960 2526 c-52 -30 -99 -58 -105 -63 -5 -4 -28 -17 -50 -28 -22 -11
-42 -23 -45 -26 -3 -3 -17 -12 -31 -20 -45 -24 -151 -83 -168 -94 -9 -5 -43
-25 -76 -44 -33 -19 -152 -88 -264 -153 -112 -65 -207 -118 -211 -118 -4 0 -7
-275 -7 -612 l0 -612 230 -133 c126 -73 231 -133 234 -133 3 0 25 -13 50 -30
24 -16 46 -30 47 -30 2 0 112 -63 245 -140 133 -77 244 -140 246 -140 4 0 219
123 300 171 17 10 46 26 65 37 40 22 43 24 280 160 96 56 180 105 185 109 6 5
19 13 31 18 11 6 59 33 107 60 l87 50 0 607 0 607 -29 20 c-16 12 -32 21 -35
21 -3 0 -35 18 -71 40 -36 22 -70 40 -75 40 -6 0 -10 5 -10 12 0 6 -3 8 -7 5
-3 -4 -13 -1 -22 6 -9 8 -36 25 -61 38 -25 13 -47 27 -50 30 -3 3 -20 12 -37
20 -18 8 -33 17 -33 21 0 5 -6 8 -14 8 -7 0 -19 7 -26 15 -7 9 -15 13 -18 10
-3 -3 -10 -1 -16 4 -12 10 -272 163 -296 174 -8 4 -28 16 -45 27 -16 11 -37
23 -45 27 -8 4 -48 26 -88 50 -40 24 -74 43 -75 43 -1 0 -45 -25 -97 -54z
m429 -439 c162 -93 309 -178 325 -188 17 -10 38 -22 46 -26 8 -3 32 -17 53
-30 l37 -23 0 -454 c0 -351 -3 -456 -12 -464 -11 -8 -198 -118 -293 -172 -81
-46 -262 -150 -367 -212 l-118 -69 -47 26 c-27 14 -75 41 -108 61 -33 19 -68
38 -77 41 -10 3 -18 9 -18 14 0 5 -4 9 -9 9 -5 0 -44 20 -85 45 -42 25 -81 45
-86 45 -6 0 -10 5 -10 10 0 6 -4 10 -9 10 -5 0 -49 23 -98 51 -48 28 -101 59
-118 69 -16 9 -52 31 -80 47 l-50 29 -1 458 -1 457 86 50 c47 27 93 54 101 60
8 5 27 15 43 22 15 6 27 15 27 19 0 4 4 8 9 8 4 0 48 23 97 51 49 29 107 62
129 75 22 12 98 56 169 97 110 64 133 74 150 65 12 -6 154 -87 315 -181z"/>
<path d="M3120 2494 c-63 -37 -130 -75 -147 -85 -18 -11 -48 -27 -65 -38 -18
-10 -100 -58 -183 -106 -82 -48 -166 -96 -185 -107 -19 -10 -42 -23 -50 -28
-8 -6 -80 -48 -160 -93 l-145 -83 -1 -608 -1 -608 36 -22 c78 -50 353 -206
362 -206 5 0 9 -5 9 -10 0 -6 3 -9 8 -8 4 1 18 -5 32 -14 27 -17 129 -76 200
-116 25 -14 125 -72 223 -129 98 -56 180 -103 183 -103 3 0 49 25 102 56 53
31 113 65 132 76 102 58 178 102 200 116 14 9 28 17 32 17 3 0 9 3 13 6 3 4
134 80 290 170 l285 164 -3 610 -2 609 -65 38 c-36 20 -70 41 -76 45 -5 4 -26
16 -45 27 -19 10 -59 32 -89 49 -30 16 -62 36 -71 43 -8 8 -18 14 -22 14 -3 0
-82 44 -175 98 -93 54 -175 102 -183 105 -8 4 -32 18 -54 32 -22 14 -47 28
-55 32 -8 4 -59 33 -113 65 -54 32 -99 58 -100 58 -1 0 -54 -30 -117 -66z
m232 -300 c277 -162 344 -201 358 -207 8 -4 83 -46 165 -94 l150 -88 3 -460 2
-460 -72 -41 c-40 -22 -218 -125 -395 -227 -178 -103 -325 -187 -327 -187 -3
0 -55 29 -116 65 -61 36 -132 77 -158 92 -118 67 -185 106 -292 168 -36 20
-85 49 -110 63 -25 14 -61 35 -80 47 l-35 22 -1 457 c-1 319 2 459 10 465 6 4
36 22 66 38 30 17 96 54 145 83 50 29 99 58 110 64 71 40 243 139 255 147 21
13 205 119 207 119 1 0 52 -30 115 -66z"/>
<path d="M5385 2531 c-6 -5 -37 -24 -70 -42 -33 -18 -62 -35 -65 -38 -3 -3
-19 -13 -35 -22 -38 -20 -838 -481 -845 -486 -3 -3 -5 -279 -6 -615 -1 -585 0
-611 18 -616 10 -2 18 -8 18 -13 0 -5 5 -9 10 -9 6 0 75 -37 153 -83 78 -46
149 -86 157 -90 8 -5 24 -13 35 -20 61 -38 147 -87 150 -87 2 0 75 -43 163
-95 89 -52 163 -95 166 -95 3 0 37 -20 76 -45 38 -25 70 -42 70 -38 0 4 5 2
12 -5 7 -7 17 -12 23 -12 12 0 210 111 231 129 7 5 14 8 17 5 2 -2 10 2 17 11
7 8 19 15 26 15 8 0 14 4 14 9 0 5 8 11 18 14 18 6 86 44 182 102 30 18 80 47
110 64 30 17 88 50 128 74 40 23 86 49 101 57 15 8 68 39 119 69 l92 53 0 608
0 608 -82 48 c-46 26 -150 87 -233 134 -82 48 -210 122 -284 165 -74 42 -149
85 -165 95 -17 9 -86 49 -153 89 -120 70 -149 80 -168 62z m206 -381 c5 0 9
-4 9 -10 0 -5 5 -10 11 -10 12 0 145 -76 172 -98 9 -8 17 -11 17 -6 0 5 4 5 8
-1 4 -5 16 -15 27 -21 12 -7 78 -45 148 -85 70 -41 149 -86 175 -101 l47 -26
3 -460 2 -459 -152 -89 c-84 -49 -166 -96 -183 -105 -16 -9 -46 -26 -65 -38
-19 -12 -47 -27 -62 -33 -16 -7 -28 -16 -28 -20 0 -4 -4 -8 -9 -8 -4 0 -48
-23 -97 -51 -49 -29 -109 -63 -134 -77 -25 -13 -50 -28 -55 -33 -6 -4 -22 1
-35 11 -14 11 -31 20 -37 20 -7 0 -13 5 -13 10 0 6 -6 10 -14 10 -7 0 -26 10
-42 23 -16 12 -30 21 -31 19 -2 -1 -13 4 -26 11 -27 17 -269 157 -317 184 -19
11 -77 44 -128 74 -51 30 -108 62 -126 72 l-33 19 0 458 0 458 66 38 c35 22
77 46 92 54 15 8 51 29 81 46 29 17 96 55 148 85 52 29 97 57 98 61 2 4 7 8
12 8 5 0 47 23 95 50 48 28 91 50 96 50 5 0 9 4 9 9 0 5 8 11 18 15 9 3 30 14
47 24 l30 18 83 -48 c46 -26 88 -48 93 -48z"/>
</g>
</svg>
