<svg width="510" height="100" viewBox="0 0 510 100" fill="none" xmlns="http://www.w3.org/2000/svg">
<path d="M0 41.2266V10.5137H510V41.2266C490.875 43.8592 497.933 47.9496 495.656 59.0694C493.38 70.1892 476.984 68.4559 482.906 59.0694C488.828 49.6829 484.5 38.3016 478.125 36.8391C471.75 35.3765 465.804 37.5262 459 39.1791C449.858 45.3937 443.941 47.3074 430.312 45.0292C424.046 44.7553 422.511 45.8182 422.344 49.1242C427.328 52.9099 428.612 55.1952 425.531 59.6544C422.623 61.7633 420.767 62.789 415.969 63.457C410.88 62.0149 409.768 60.7963 410.391 58.1919C414.975 49.3334 413.578 42.9817 408.797 44.4442C404.016 45.9067 406.406 45.3217 399.234 45.6142C392.062 45.9067 387.281 41.2266 381.703 42.9817C376.125 44.7367 371.518 57.6069 368.953 59.6544C366.388 61.7019 357.797 67.552 353.016 57.6069C348.234 47.6617 337.89 68.0988 344.25 81.2997C350.61 94.5006 336.054 95.1778 331.5 83.9323C334.118 60.3625 330.241 54.0725 315.562 54.0968L309.188 60.5319C287.219 63.5423 285.9 71.945 289.523 86.3006C293.882 93.2009 276.452 113.332 274.615 86.3006C272.778 59.2691 279.542 46.7467 265.359 47.0767C251.177 47.4067 251.812 82.7622 251.812 88.6123C251.812 94.4624 237.469 95.6324 240.656 88.6123C243.844 81.5922 245.438 63.457 235.078 65.212C224.719 66.967 214.749 69.417 213.562 63.457C213.333 57.2965 216.75 54.0968 205.594 54.0968C194.589 54.0968 195.954 60.9942 199.088 76.8376L199.219 77.4972C202.444 93.8088 180.918 93.5882 184.078 77.4972C187.238 61.4062 188.753 58.1114 182.484 47.0767L170.531 45.0292C165.416 39.9498 162.385 37.7993 156.188 36.5466C148.391 40.6991 149.636 44.2115 153.797 50.8793C156.591 64.2075 137.942 66.9935 138.656 51.7568C139.37 36.52 139.87 32.0638 127.5 30.6965C120.359 30.6198 117.319 34.0189 114.75 45.6142L89.25 50.8793C80.662 59.5968 80.1827 65.1502 85.2656 76.0346C85.7196 87.254 68.1658 87.6887 70.125 76.9122C72.0842 66.1356 75.1506 62.3083 70.125 57.6069C46.8006 42.4699 17.5312 42.3966 21.5156 52.3418C25.5 62.2869 3.1875 63.7495 7.17188 52.3418C11.1562 40.9341 11.6677 40.002 0 41.2266Z" fill="#BD8700"/>
<path d="M0 30.713V0H510V30.713C490.875 33.3455 497.933 37.4359 495.656 48.5557C493.38 59.6756 476.984 57.9422 482.906 48.5557C488.828 39.1692 484.5 27.7879 478.125 26.3254C471.75 24.8629 465.804 27.0125 459 28.6654C449.858 34.88 443.941 36.7937 430.312 34.5155C424.046 34.2416 422.511 35.3045 422.344 38.6106C427.328 42.3962 428.612 44.6815 425.531 49.1407C422.623 51.2496 420.767 52.2754 415.969 52.9433C410.88 51.5013 409.768 50.2826 410.391 47.6782C414.975 38.8198 413.578 32.468 408.797 33.9305C404.016 35.393 406.406 34.808 399.234 35.1005C392.062 35.393 387.281 30.713 381.703 32.468C376.125 34.223 371.518 47.0932 368.953 49.1407C366.388 51.1883 357.797 57.0383 353.016 47.0932C348.234 37.1481 337.89 57.5851 344.25 70.786C350.61 83.987 336.054 84.6641 331.5 73.4186C334.118 49.8489 330.241 43.5588 315.562 43.5831L309.188 50.0182C287.219 53.0287 285.9 61.4313 289.523 75.787C293.882 82.6873 276.452 102.819 274.615 75.787C272.778 48.7554 279.542 36.2331 265.359 36.563C251.177 36.893 251.812 72.2486 251.812 78.0987C251.812 83.9487 237.469 85.1188 240.656 78.0987C243.844 71.0786 245.438 52.9433 235.078 54.6983C224.719 56.4533 214.749 58.9034 213.562 52.9433C213.333 46.7829 216.75 43.5831 205.594 43.5831C194.589 43.5831 195.954 50.4806 199.088 66.3239L199.219 66.9835C202.444 83.2951 180.918 83.0745 184.078 66.9835C187.238 50.8925 188.753 47.5977 182.484 36.563L170.531 34.5155C165.416 29.4361 162.385 27.2856 156.188 26.0329C148.391 30.1855 149.636 33.6978 153.797 40.3656C156.591 53.6938 137.942 56.4799 138.656 41.2431C139.37 26.0064 139.87 21.5501 127.5 20.1828C120.359 20.1061 117.319 23.5053 114.75 35.1005L89.25 40.3656C80.662 49.0831 80.1827 54.6365 85.2656 65.521C85.7196 76.7403 68.1658 77.175 70.125 66.3985C72.0842 55.6219 75.1506 51.7946 70.125 47.0932C46.8006 31.9563 17.5312 31.883 21.5156 41.8281C25.5 51.7733 3.1875 53.2358 7.17188 41.8281C11.1562 30.4205 11.6677 29.4883 0 30.713Z" fill="#F7B238"/>
</svg>
