<svg width="756" height="756" viewBox="0 0 756 756" fill="none" xmlns="http://www.w3.org/2000/svg">
<g opacity="0.5">
<path fill-rule="evenodd" clip-rule="evenodd" d="M533.22 60.0984C533.069 66.5209 531.592 72.7045 529.075 78.3438C531.04 78.879 533.047 79.7191 535.076 80.8778L535.083 80.8663C535.214 80.9468 535.345 81.0279 535.474 81.1094C535.606 81.1872 535.738 81.2664 535.869 81.3469L535.862 81.3583C537.819 82.6337 539.483 84.0359 540.857 85.5403C544.724 80.7253 549.552 76.5882 555.196 73.5213L557.583 77.9147C552.094 80.8973 547.463 85.0209 543.859 89.8265C545.156 92.3603 545.789 95.0788 545.767 97.8955C545.732 102.493 543.954 107.068 540.922 111.242C543.575 111.454 546.42 112.109 549.476 113.077C555.27 114.911 562.213 118.006 570.612 121.92L570.628 121.927L570.644 121.935C578.955 125.95 585.029 130.916 588.799 135.97C592.527 140.967 594.199 146.352 592.979 150.989C591.703 155.84 587.52 158.984 581.541 159.816C575.649 160.636 567.765 159.3 558.073 155.222C549.016 151.411 542.323 145.96 537.761 139.611C537.448 147.265 536.124 152.718 534.135 156.202C532.984 158.219 531.499 159.764 529.671 160.53C527.768 161.327 525.801 161.148 524.081 160.264C521.307 158.84 519.257 155.689 518.117 151.84C517.126 154.411 516.087 156.833 514.983 159.116C512.56 164.13 509.818 168.491 506.58 172.302C502.822 176.724 498.438 180.355 493.195 183.401C487.619 186.642 480.797 188.257 473.351 190.02L473.351 190.02C471.803 190.386 470.228 190.759 468.632 191.154L468.525 190.722L468.091 190.824C467.714 189.224 467.327 187.652 466.946 186.108L466.946 186.107C465.114 178.678 463.436 171.872 463.773 165.431C464.09 159.375 465.318 153.817 467.537 148.455C469.448 143.834 472.076 139.403 475.43 134.958C476.958 132.933 478.638 130.903 480.473 128.847C476.528 129.591 472.788 129.205 470.255 127.388C468.683 126.261 467.626 124.593 467.466 122.536C467.313 120.56 468.01 118.533 469.278 116.588C471.47 113.228 475.717 109.56 482.383 105.787C474.652 104.628 466.746 101.162 459.22 94.8442C451.166 88.0831 446.378 81.6797 444.417 76.0632C442.427 70.3641 443.315 65.2068 447.048 61.8563C450.616 58.6534 456.17 57.6823 462.318 58.7173C468.536 59.7641 475.728 62.9006 483.095 68.4614L483.109 68.4719L483.122 68.4825C490.44 74.1673 496.363 78.9315 500.641 83.2484C502.897 85.5256 504.779 87.7578 506.179 90.0215C508.508 85.4182 511.766 81.747 515.84 79.6164C518.336 78.311 521.044 77.6329 523.89 77.63C526.52 72.2295 528.074 66.2268 528.221 59.9808L533.22 60.0984ZM471.882 185.225C472.073 185.179 472.263 185.134 472.452 185.089L472.453 185.089C477.984 183.773 482.687 182.654 486.744 180.996L478.195 175.774L477.408 175.294L468.859 170.072C469.236 174.438 470.388 179.134 471.743 184.655L471.743 184.656C471.789 184.845 471.836 185.034 471.882 185.225ZM480.014 171.027L480.801 171.507L491.951 178.318C495.265 176.265 498.162 173.949 500.741 171.296L486.05 162.799L486.04 162.815L485.702 162.598L485.355 162.397L485.365 162.381L471.097 153.19C469.915 156.696 469.177 160.331 468.864 164.217L480.014 171.027ZM488.309 158.33L504.08 167.451C505.917 165.085 507.594 162.468 509.152 159.556L491.095 154.092L491.289 153.452L490.808 153.916L477.702 140.347C475.822 143.063 474.26 145.749 472.994 148.464L488.309 158.33ZM493.621 149.632L511.384 155.008C513.766 149.727 515.873 143.609 517.898 136.461C518.205 135.042 518.601 133.587 519.095 132.106C520.729 127.199 522.464 123.105 524.498 119.877C524.406 119.746 524.314 119.615 524.222 119.484C524.122 119.344 524.023 119.203 523.923 119.061C522.014 116.359 519.975 113.474 517.991 109.734C513.758 109.676 510.26 109.18 506.984 108.715C506.653 108.668 506.323 108.622 505.996 108.576C504.053 111.86 501.203 115.272 497.583 118.967C496.49 120.083 495.377 121.099 494.255 122.02C488.82 127.085 484.34 131.754 480.729 136.284L493.621 149.632ZM520.603 105.457L521.278 105.138C523.373 109.56 525.513 112.638 527.721 115.768C528.491 114.999 529.303 114.325 530.163 113.745C530.492 105.336 533.186 96.9629 537.853 89.7117C536.631 88.1835 534.991 86.7238 532.868 85.3769C530.7 84.1026 528.652 83.31 526.735 82.9213C522.415 90.3837 516.195 96.6042 508.864 100.736C508.742 101.766 508.512 102.797 508.18 103.833C511.973 104.367 515.688 104.867 520.579 104.711L520.603 105.457ZM509.716 94.3001C514.012 91.3013 517.776 87.4597 520.768 83.0337C519.852 83.274 518.981 83.6165 518.157 84.0471C514.713 85.8483 511.74 89.378 509.716 94.3001ZM494.066 115.413C496.814 112.604 498.91 110.146 500.451 107.947C496.812 107.684 492.764 107.768 487.44 108.732C479.46 112.879 475.25 116.585 473.466 119.319C472.575 120.687 472.41 121.622 472.451 122.149C472.486 122.596 472.678 122.973 473.169 123.325C474.335 124.161 477.104 124.688 481.127 123.563C484.116 122.727 487.541 121.034 490.964 118.252C491.969 117.316 493.003 116.371 494.066 115.413ZM503.787 97.1239C503.823 97.3111 503.854 97.4992 503.88 97.6886C491.673 103.451 476.514 102.833 462.435 91.0147C454.737 84.5529 450.686 78.8493 449.138 74.415C447.618 70.0632 448.551 67.2256 450.388 65.5772C452.389 63.7813 456.152 62.7497 461.488 63.6479C466.751 64.5338 473.205 67.2637 480.069 72.4418C487.409 78.1443 493.075 82.7178 497.089 86.7679C501.127 90.8422 503.198 94.1053 503.787 97.1239ZM535.5 110.049C536.207 104.857 537.906 99.7547 540.477 95.0717C540.682 95.9968 540.775 96.928 540.768 97.8571C540.738 101.744 538.955 106.001 535.5 110.049ZM523.863 133.613C525.107 129.885 526.336 126.898 527.589 124.523C529.485 127.64 531.259 131.28 532.832 136.457C532.786 145.449 531.412 150.887 529.793 153.723C528.984 155.141 528.227 155.714 527.739 155.918C527.326 156.091 526.903 156.093 526.365 155.816C525.089 155.161 523.356 152.937 522.52 148.845C521.899 145.804 521.841 141.984 522.753 137.668C523.127 136.347 523.496 134.995 523.863 133.613ZM535.695 116.613C535.512 116.666 535.331 116.724 535.15 116.788C535.598 130.28 543.069 143.484 560.012 150.613C569.276 154.511 576.2 155.511 580.852 154.864C585.417 154.229 587.516 152.103 588.144 149.716C588.828 147.116 588.027 143.297 584.792 138.96C581.601 134.682 576.225 130.187 568.484 126.444C560.059 122.518 553.403 119.565 547.967 117.843C542.499 116.111 538.65 115.758 535.695 116.613Z" fill="#F7B238"/>
<path fill-rule="evenodd" clip-rule="evenodd" d="M180.22 580.098C180.069 586.521 178.592 592.705 176.075 598.344C178.04 598.879 180.047 599.719 182.076 600.878L182.083 600.866C182.214 600.947 182.345 601.028 182.474 601.109C182.606 601.187 182.738 601.266 182.869 601.347L182.862 601.358C184.819 602.634 186.483 604.036 187.857 605.54C191.724 600.725 196.552 596.588 202.196 593.521L204.583 597.915C199.094 600.897 194.463 605.021 190.859 609.827C192.156 612.36 192.789 615.079 192.767 617.895C192.732 622.493 190.954 627.068 187.922 631.242C190.575 631.454 193.42 632.109 196.476 633.077C202.27 634.911 209.213 638.006 217.612 641.92L217.628 641.927L217.644 641.935C225.955 645.95 232.029 650.916 235.799 655.97C239.527 660.967 241.199 666.352 239.979 670.989C238.703 675.84 234.52 678.984 228.541 679.816C222.649 680.636 214.765 679.3 205.073 675.222C196.016 671.411 189.323 665.96 184.761 659.611C184.448 667.265 183.124 672.718 181.135 676.202C179.984 678.219 178.499 679.764 176.671 680.53C174.768 681.327 172.801 681.148 171.081 680.264C168.307 678.84 166.257 675.689 165.117 671.84C164.126 674.411 163.087 676.833 161.983 679.116C159.56 684.13 156.818 688.491 153.58 692.302C149.822 696.724 145.438 700.355 140.195 703.401C134.619 706.642 127.797 708.257 120.351 710.02L120.351 710.02C118.803 710.386 117.228 710.759 115.632 711.154L115.525 710.722L115.091 710.824C114.714 709.224 114.327 707.652 113.946 706.108L113.946 706.107C112.114 698.678 110.436 691.872 110.773 685.431C111.09 679.375 112.318 673.817 114.537 668.455C116.448 663.834 119.076 659.403 122.43 654.958C123.958 652.933 125.638 650.903 127.473 648.847C123.528 649.591 119.788 649.205 117.255 647.388C115.683 646.261 114.626 644.593 114.466 642.536C114.313 640.56 115.01 638.533 116.278 636.588C118.47 633.228 122.717 629.56 129.383 625.787C121.652 624.628 113.746 621.162 106.22 614.844C98.1661 608.083 93.3781 601.68 91.4171 596.063C89.4272 590.364 90.315 585.207 94.0478 581.856C97.6161 578.653 103.17 577.682 109.318 578.717C115.536 579.764 122.728 582.901 130.095 588.461L130.109 588.472L130.122 588.483C137.44 594.167 143.363 598.932 147.641 603.248C149.897 605.526 151.779 607.758 153.179 610.022C155.508 605.418 158.766 601.747 162.84 599.616C165.336 598.311 168.044 597.633 170.89 597.63C173.52 592.229 175.074 586.227 175.221 579.981L180.22 580.098ZM118.882 705.225C119.073 705.179 119.263 705.134 119.452 705.089L119.453 705.089C124.984 703.773 129.687 702.654 133.744 700.996L125.195 695.774L124.408 695.294L115.859 690.072C116.236 694.438 117.388 699.134 118.743 704.655L118.743 704.656C118.789 704.845 118.836 705.034 118.882 705.225ZM127.014 691.027L127.801 691.507L138.951 698.318C142.265 696.265 145.162 693.949 147.741 691.296L133.05 682.799L133.04 682.815L132.702 682.598L132.355 682.397L132.365 682.381L118.097 673.19C116.915 676.696 116.177 680.331 115.864 684.217L127.014 691.027ZM135.309 678.33L151.08 687.451C152.917 685.085 154.594 682.468 156.152 679.556L138.095 674.092L138.289 673.452L137.808 673.916L124.702 660.347C122.822 663.063 121.26 665.749 119.994 668.464L135.309 678.33ZM140.621 669.632L158.384 675.008C160.766 669.727 162.873 663.609 164.898 656.461C165.205 655.042 165.601 653.587 166.095 652.106C167.729 647.199 169.464 643.105 171.498 639.877C171.406 639.746 171.314 639.615 171.222 639.484C171.122 639.344 171.023 639.203 170.923 639.061C169.014 636.359 166.975 633.474 164.991 629.734C160.758 629.676 157.26 629.18 153.984 628.715C153.653 628.668 153.323 628.622 152.996 628.576C151.053 631.86 148.203 635.272 144.583 638.967C143.49 640.083 142.377 641.099 141.255 642.02C135.82 647.085 131.34 651.754 127.729 656.284L140.621 669.632ZM167.603 625.457L168.278 625.138C170.373 629.56 172.513 632.638 174.721 635.768C175.491 634.999 176.303 634.325 177.163 633.745C177.492 625.336 180.186 616.963 184.853 609.712C183.631 608.183 181.991 606.724 179.868 605.377C177.7 604.103 175.652 603.31 173.735 602.921C169.415 610.384 163.195 616.604 155.864 620.736C155.742 621.766 155.512 622.797 155.18 623.833C158.973 624.367 162.688 624.867 167.579 624.711L167.603 625.457ZM156.716 614.3C161.012 611.301 164.776 607.46 167.768 603.034C166.852 603.274 165.981 603.617 165.157 604.047C161.713 605.848 158.74 609.378 156.716 614.3ZM141.066 635.413C143.814 632.604 145.91 630.146 147.451 627.947C143.812 627.684 139.764 627.768 134.44 628.732C126.46 632.879 122.25 636.585 120.466 639.319C119.575 640.687 119.41 641.622 119.451 642.149C119.486 642.596 119.678 642.973 120.169 643.325C121.335 644.161 124.104 644.688 128.127 643.563C131.116 642.727 134.541 641.034 137.964 638.252C138.969 637.316 140.003 636.371 141.066 635.413ZM150.787 617.124C150.823 617.311 150.854 617.499 150.88 617.689C138.673 623.451 123.514 622.833 109.435 611.015C101.737 604.553 97.6859 598.849 96.1376 594.415C94.6182 590.063 95.5512 587.226 97.3876 585.577C99.3885 583.781 103.152 582.75 108.488 583.648C113.751 584.534 120.205 587.264 127.069 592.442C134.409 598.144 140.075 602.718 144.089 606.768C148.127 610.842 150.198 614.105 150.787 617.124ZM182.5 630.049C183.207 624.857 184.906 619.755 187.477 615.072C187.682 615.997 187.775 616.928 187.768 617.857C187.738 621.744 185.955 626.001 182.5 630.049ZM170.863 653.613C172.107 649.885 173.336 646.898 174.589 644.523C176.485 647.64 178.259 651.28 179.832 656.457C179.786 665.449 178.412 670.887 176.793 673.723C175.984 675.141 175.227 675.714 174.739 675.918C174.326 676.091 173.903 676.093 173.365 675.816C172.089 675.161 170.356 672.937 169.52 668.845C168.899 665.804 168.841 661.984 169.753 657.668C170.127 656.347 170.496 654.995 170.863 653.613ZM182.695 636.613C182.512 636.666 182.331 636.724 182.15 636.788C182.598 650.28 190.069 663.484 207.012 670.613C216.276 674.511 223.2 675.511 227.852 674.864C232.417 674.229 234.516 672.103 235.144 669.716C235.828 667.116 235.027 663.297 231.792 658.96C228.601 654.682 223.225 650.187 215.484 646.444C207.059 642.518 200.403 639.565 194.967 637.843C189.499 636.111 185.65 635.758 182.695 636.613Z" fill="#F7B238"/>
<path fill-rule="evenodd" clip-rule="evenodd" d="M185.801 215.92C190.863 219.875 194.943 224.751 197.964 230.137C199.567 228.88 201.439 227.771 203.579 226.835L203.574 226.823C203.718 226.765 203.861 226.709 204.003 226.654C204.144 226.594 204.286 226.536 204.43 226.478L204.435 226.491C206.626 225.682 208.744 225.184 210.771 224.98C209.217 219.003 208.779 212.661 209.688 206.301L214.638 207.009C213.754 213.193 214.298 219.37 216.002 225.13C218.809 225.602 221.368 226.717 223.615 228.416C227.282 231.188 229.891 235.346 231.43 240.27C233.184 238.268 235.407 236.377 238.008 234.502C242.939 230.949 249.566 227.226 257.72 222.824L257.735 222.816L257.751 222.808C265.933 218.537 273.543 216.628 279.849 216.62C286.084 216.612 291.402 218.485 294.393 222.232C297.523 226.152 297.549 231.385 294.647 236.678C291.788 241.895 286.01 247.422 276.953 252.764C268.488 257.755 260.12 259.871 252.304 259.741C258.257 264.561 261.841 268.879 263.449 272.553C264.38 274.681 264.734 276.795 264.257 278.719C263.761 280.721 262.442 282.192 260.707 283.045C257.908 284.42 254.156 284.184 250.388 282.801C251.859 285.131 253.182 287.41 254.355 289.658C256.931 294.596 258.793 299.399 259.917 304.272C261.222 309.926 261.518 315.611 260.832 321.636C260.103 328.044 257.327 334.481 254.296 341.507L254.296 341.508C253.666 342.968 253.025 344.454 252.39 345.971L251.979 345.798L251.802 346.207C250.293 345.555 248.801 344.927 247.334 344.311L247.334 344.311C240.28 341.345 233.818 338.628 228.852 334.513C224.182 330.644 220.456 326.341 217.478 321.36C214.913 317.068 212.927 312.315 211.362 306.97C210.65 304.536 210.024 301.976 209.47 299.277C207.712 302.886 205.17 305.656 202.199 306.604C200.357 307.192 198.388 307.045 196.642 305.945C194.965 304.888 193.755 303.119 192.952 300.94C191.565 297.177 191.157 291.58 192.109 283.979C186.564 289.489 179.064 293.763 169.503 296.03C159.271 298.456 151.276 298.474 145.599 296.695C139.839 294.889 136.231 291.099 135.771 286.104C135.332 281.329 137.868 276.294 142.368 271.979C146.92 267.615 153.729 263.718 162.588 261.127L162.605 261.122L162.622 261.117C171.551 258.64 178.909 256.732 184.926 255.877C188.1 255.426 191.014 255.249 193.666 255.476C191.363 250.86 190.362 246.055 191.085 241.514C191.528 238.733 192.6 236.156 194.297 233.87C191.534 228.536 187.646 223.706 182.723 219.86L185.801 215.92ZM249.573 339.823C249.65 339.643 249.727 339.464 249.804 339.285L249.804 339.285C252.05 334.062 253.96 329.62 255.052 325.376L245.759 329.118L244.904 329.462L235.611 333.204C239.339 335.507 243.794 337.386 249.032 339.595L249.033 339.596C249.212 339.671 249.392 339.747 249.573 339.823ZM243.036 324.824L243.891 324.479L256.011 319.599C256.343 315.715 256.214 312.008 255.625 308.355L240.038 315.07L240.045 315.088L239.669 315.229L239.301 315.387L239.293 315.37L223.403 321.33C225.51 324.372 227.986 327.133 230.916 329.704L243.036 324.824ZM237.801 310.589L254.533 303.382C253.731 300.495 252.633 297.588 251.227 294.6L236.064 305.825L235.666 305.287L235.752 305.95L217.042 308.365C218.099 311.494 219.322 314.351 220.744 316.987L237.801 310.589ZM233.995 301.136L248.91 290.094C246.095 285.03 242.445 279.688 237.919 273.796C236.964 272.703 236.033 271.517 235.139 270.237C232.178 265.996 229.929 262.161 228.553 258.601C228.394 258.597 228.234 258.593 228.074 258.589C227.902 258.585 227.729 258.58 227.556 258.576C224.248 258.494 220.717 258.407 216.532 257.767C213.958 261.129 211.472 263.639 209.144 265.99C208.908 266.228 208.674 266.464 208.442 266.699C209.917 270.219 210.954 274.542 211.757 279.652C212 281.194 212.151 282.694 212.219 284.145C213.039 291.529 214.11 297.91 215.589 303.511L233.995 301.136ZM214.66 253.119L214.806 252.387C219.605 253.346 223.352 253.466 227.181 253.563C227.024 252.487 226.967 251.432 227.016 250.396C220.466 245.113 215.356 237.953 212.324 229.88C210.369 229.948 208.219 230.392 205.871 231.292C203.555 232.271 201.696 233.44 200.24 234.746C203.648 242.667 204.926 251.37 203.865 259.718C204.618 260.432 205.308 261.231 205.941 262.116C208.634 259.392 211.252 256.709 214.047 252.692L214.66 253.119ZM199.21 255.193C199.368 249.956 198.533 244.643 196.768 239.601C196.414 240.479 196.169 241.383 196.023 242.3C195.412 246.139 196.469 250.631 199.21 255.193ZM206.806 280.352C206.192 276.471 205.472 273.322 204.628 270.773C202.245 273.535 199.895 276.833 197.491 281.68C196.054 290.557 196.514 296.147 197.643 299.211C198.208 300.742 198.86 301.433 199.308 301.714C199.686 301.953 200.104 302.024 200.68 301.84C202.046 301.404 204.122 299.497 205.621 295.598C206.735 292.701 207.421 288.942 207.232 284.535C207.082 283.17 206.94 281.776 206.806 280.352ZM197.936 261.636C198.108 261.718 198.277 261.806 198.444 261.898C195.78 275.131 186.236 286.925 168.35 291.165C158.571 293.483 151.576 293.329 147.094 291.924C142.696 290.545 140.976 288.103 140.75 285.645C140.504 282.968 141.923 279.333 145.829 275.588C149.681 271.895 155.724 268.346 163.975 265.93C172.932 263.446 179.984 261.63 185.629 260.827C191.308 260.02 195.163 260.306 197.936 261.636ZM227.237 243.908C223.493 240.242 220.414 235.833 218.191 230.974C219.056 231.362 219.858 231.844 220.599 232.404C223.7 234.748 226.051 238.719 227.237 243.908ZM239.194 267.311C236.947 264.087 235.284 261.318 234.127 258.895C237.759 259.235 241.738 259.984 246.83 261.813C254.018 267.217 257.56 271.566 258.869 274.558C259.523 276.053 259.531 277.003 259.404 277.516C259.296 277.95 259.044 278.291 258.502 278.557C257.214 279.19 254.396 279.253 250.613 277.481C247.803 276.164 244.703 273.93 241.786 270.622C240.948 269.533 240.085 268.43 239.194 267.311ZM232.619 247.67C232.552 247.848 232.491 248.029 232.435 248.212C243.526 255.906 258.579 257.795 274.413 248.457C283.069 243.352 288.005 238.394 290.263 234.275C292.479 230.233 292.026 227.28 290.486 225.352C288.808 223.251 285.266 221.613 279.855 221.62C274.519 221.627 267.703 223.256 260.08 227.233C251.901 231.648 245.558 235.225 240.932 238.559C236.278 241.912 233.697 244.789 232.619 247.67Z" fill="#F7B238"/>
<path fill-rule="evenodd" clip-rule="evenodd" d="M609.801 478.92C614.863 482.875 618.943 487.751 621.964 493.137C623.567 491.88 625.439 490.771 627.579 489.835L627.574 489.823C627.718 489.765 627.861 489.709 628.003 489.654C628.144 489.594 628.286 489.536 628.43 489.478L628.435 489.491C630.626 488.682 632.744 488.184 634.771 487.98C633.217 482.003 632.779 475.661 633.688 469.301L638.638 470.009C637.754 476.193 638.298 482.37 640.002 488.13C642.809 488.602 645.368 489.717 647.615 491.416C651.282 494.188 653.891 498.346 655.43 503.27C657.184 501.268 659.407 499.377 662.008 497.502C666.939 493.949 673.566 490.226 681.72 485.824L681.735 485.816L681.751 485.808C689.933 481.537 697.543 479.628 703.849 479.62C710.084 479.612 715.402 481.485 718.393 485.232C721.523 489.152 721.549 494.385 718.647 499.678C715.788 504.895 710.01 510.422 700.953 515.764C692.488 520.755 684.12 522.871 676.304 522.741C682.257 527.561 685.841 531.879 687.449 535.553C688.38 537.681 688.734 539.795 688.257 541.719C687.761 543.721 686.442 545.192 684.707 546.045C681.908 547.42 678.156 547.184 674.388 545.801C675.859 548.131 677.182 550.41 678.355 552.658C680.931 557.596 682.793 562.399 683.917 567.272C685.222 572.926 685.518 578.611 684.832 584.636C684.103 591.044 681.327 597.481 678.296 604.507L678.296 604.508C677.666 605.968 677.025 607.454 676.39 608.971L675.979 608.798L675.802 609.207C674.293 608.555 672.801 607.927 671.334 607.311L671.334 607.311C664.28 604.345 657.818 601.628 652.852 597.513C648.182 593.644 644.456 589.341 641.478 584.36C638.913 580.068 636.927 575.315 635.362 569.97C634.65 567.536 634.024 564.976 633.47 562.277C631.712 565.886 629.17 568.656 626.199 569.604C624.357 570.192 622.388 570.045 620.642 568.945C618.965 567.888 617.755 566.119 616.952 563.94C615.565 560.177 615.157 554.58 616.109 546.979C610.564 552.489 603.064 556.763 593.503 559.03C583.271 561.456 575.276 561.474 569.599 559.695C563.839 557.889 560.231 554.099 559.771 549.104C559.332 544.329 561.868 539.294 566.368 534.979C570.92 530.615 577.729 526.718 586.588 524.127L586.605 524.122L586.622 524.117C595.551 521.64 602.909 519.732 608.926 518.877C612.1 518.426 615.014 518.249 617.666 518.476C615.363 513.86 614.362 509.055 615.085 504.514C615.528 501.733 616.6 499.156 618.297 496.87C615.534 491.536 611.646 486.706 606.723 482.86L609.801 478.92ZM673.573 602.823C673.65 602.643 673.727 602.464 673.804 602.285L673.804 602.285C676.05 597.062 677.96 592.62 679.052 588.376L669.759 592.118L668.904 592.462L659.611 596.204C663.339 598.507 667.794 600.386 673.032 602.595L673.033 602.596C673.212 602.671 673.392 602.747 673.573 602.823ZM667.036 587.824L667.891 587.479L680.011 582.599C680.343 578.715 680.214 575.008 679.625 571.355L664.038 578.07L664.045 578.088L663.669 578.229L663.301 578.387L663.293 578.37L647.403 584.33C649.51 587.372 651.986 590.133 654.916 592.704L667.036 587.824ZM661.801 573.589L678.533 566.382C677.731 563.495 676.633 560.588 675.227 557.6L660.064 568.825L659.666 568.287L659.752 568.95L641.042 571.365C642.099 574.494 643.322 577.351 644.744 579.987L661.801 573.589ZM657.995 564.136L672.91 553.094C670.095 548.03 666.445 542.688 661.919 536.796C660.964 535.703 660.033 534.517 659.139 533.237C656.178 528.996 653.929 525.161 652.553 521.601C652.394 521.597 652.234 521.593 652.074 521.589C651.902 521.585 651.729 521.58 651.556 521.576C648.248 521.494 644.717 521.407 640.532 520.767C637.958 524.129 635.472 526.639 633.144 528.99C632.908 529.228 632.674 529.464 632.442 529.699C633.917 533.219 634.954 537.542 635.757 542.652C636 544.194 636.151 545.694 636.219 547.145C637.039 554.529 638.11 560.91 639.589 566.511L657.995 564.136ZM638.66 516.119L638.806 515.387C643.605 516.346 647.352 516.466 651.181 516.563C651.024 515.487 650.967 514.432 651.016 513.396C644.466 508.113 639.356 500.953 636.324 492.88C634.369 492.948 632.219 493.392 629.871 494.292C627.555 495.271 625.696 496.44 624.24 497.746C627.648 505.667 628.926 514.37 627.865 522.718C628.618 523.432 629.308 524.231 629.941 525.116C632.634 522.392 635.252 519.709 638.047 515.692L638.66 516.119ZM623.21 518.193C623.368 512.956 622.533 507.643 620.768 502.601C620.414 503.479 620.169 504.383 620.023 505.3C619.412 509.139 620.469 513.631 623.21 518.193ZM630.806 543.352C630.192 539.471 629.472 536.322 628.628 533.773C626.245 536.535 623.895 539.833 621.491 544.68C620.054 553.557 620.514 559.147 621.643 562.211C622.208 563.742 622.86 564.433 623.308 564.714C623.686 564.953 624.104 565.024 624.68 564.84C626.046 564.404 628.122 562.497 629.621 558.598C630.735 555.701 631.421 551.942 631.232 547.535C631.082 546.17 630.94 544.776 630.806 543.352ZM621.936 524.636C622.108 524.718 622.277 524.806 622.444 524.898C619.78 538.131 610.236 549.925 592.35 554.165C582.571 556.483 575.576 556.329 571.094 554.924C566.696 553.545 564.976 551.103 564.75 548.645C564.504 545.968 565.923 542.333 569.829 538.588C573.681 534.895 579.724 531.346 587.975 528.93C596.932 526.446 603.984 524.63 609.629 523.827C615.308 523.02 619.163 523.306 621.936 524.636ZM651.237 506.908C647.493 503.242 644.414 498.833 642.191 493.974C643.056 494.362 643.858 494.844 644.599 495.404C647.7 497.748 650.051 501.719 651.237 506.908ZM663.194 530.311C660.947 527.087 659.284 524.318 658.127 521.895C661.759 522.235 665.738 522.984 670.83 524.813C678.018 530.217 681.56 534.566 682.869 537.558C683.523 539.053 683.531 540.003 683.404 540.516C683.296 540.95 683.044 541.291 682.502 541.557C681.214 542.19 678.396 542.253 674.613 540.481C671.803 539.164 668.703 536.93 665.786 533.622C664.948 532.533 664.085 531.43 663.194 530.311ZM656.619 510.67C656.552 510.848 656.491 511.029 656.435 511.212C667.526 518.906 682.579 520.795 698.413 511.457C707.069 506.352 712.005 501.394 714.263 497.275C716.479 493.233 716.026 490.28 714.486 488.352C712.808 486.251 709.266 484.613 703.855 484.62C698.519 484.627 691.703 486.256 684.08 490.233C675.901 494.648 669.558 498.225 664.932 501.559C660.278 504.912 657.697 507.789 656.619 510.67Z" fill="#F7B238"/>
</g>
</svg>
