<svg width="240" height="300" viewBox="0 0 240 300" fill="none" xmlns="http://www.w3.org/2000/svg">
<path d="M30.3727 235.202C-3.46737 186.908 -8.1551 157.931 11.9576 102.167L128.398 62.8398L221.324 102.167C245.803 149.418 240.514 180.614 211.691 241.035C188.089 329.245 40.5125 311.143 30.3727 235.202Z" fill="#8F6453"/>
<path d="M48.9203 96.5568C35.9502 101.886 12.6442 121.314 7.36021 112.366C3.05658 100.943 6.48039 88.2207 22.9821 54.2815L29.4666 47.5316C29.4666 47.5316 27.8445 37.5845 31.8246 27.1045C35.8048 16.6245 67.11 1.6606 123.05 0.105127C179.232 -1.80429 211.92 22.8574 212.36 28.5255C212.8 34.1936 213.539 48.2422 213.539 48.2422C217.41 51.0455 219.44 53.545 222.971 59.2551C247.399 122.689 239.921 215.389 234.614 227.113C229.308 238.836 227.393 230.843 225.182 227.113C222.971 223.383 196.886 175.779 196.886 175.779C189.793 167.577 179.789 170.094 168 156.95C156.211 143.806 152.969 98.333 131.009 96.5568C109.049 94.7805 80.6051 132.26 71.6162 129.063C62.6272 125.865 61.8904 91.228 48.9203 96.5568Z" fill="#F7B238"/>
<path d="M230.867 218.366C235.542 212.33 238.8 144.342 229.45 97.8327C220.099 51.3238 224.208 98.0103 225.341 103.336C226.475 108.661 229.775 161.908 225.341 185.703C217.424 198.832 226.192 224.401 230.867 218.366Z" fill="#E3A401"/>
<path d="M35.0033 237.869H32.4531C54.1463 256.118 78.0734 268.757 120.152 268.757C162.23 268.757 184.742 258.066 211.676 237.869H208.842C138.85 268.375 100.493 265.382 35.0033 237.869Z" fill="#714D3F"/>
<path d="M35.1177 48.9941H32.5938C54.064 64.0963 77.7452 74.5563 119.391 74.5563C161.037 74.5563 183.317 65.7086 209.974 48.9941H207.17C137.897 74.2402 99.9346 71.7638 35.1177 48.9941Z" fill="#E3A401"/>
<ellipse cx="122.829" cy="27.3369" rx="69.5638" ry="13.4912" fill="#E3A401"/>
<mask id="mask0_14_13" style="mask-type:alpha" maskUnits="userSpaceOnUse" x="53" y="13" width="140" height="28">
<ellipse cx="122.829" cy="27.3369" rx="69.5638" ry="13.4912" fill="#E3A401"/>
</mask>
<g mask="url(#mask0_14_13)">
<ellipse cx="122.84" cy="38.8766" rx="66.7303" ry="12.9586" fill="#BD8700"/>
</g>
</svg>
